<svg version="1.2" xmlns="http://www.w3.org/2000/svg" viewBox="0 0 3710 3710" width="3710" height="3710">
	<title>procure</title>
	<defs>
		<linearGradient id="g1" x2="1" gradientUnits="userSpaceOnUse" gradientTransform="matrix(-2473.457,-3071.878,3113.731,-2507.157,3449.352,4002.46)">
			<stop offset="0" stop-color="#dae3fe"/>
			<stop offset="1" stop-color="#e9effd"/>
		</linearGradient>
		<linearGradient id="g2" x2="1" gradientUnits="userSpaceOnUse" gradientTransform="matrix(-569.265,2171.269,-1753.664,-459.777,1596.602,2091.26)">
			<stop offset="0" stop-color="#09005d"/>
			<stop offset="1" stop-color="#1a0f91"/>
		</linearGradient>
		<linearGradient id="g3" x2="1" gradientUnits="userSpaceOnUse" gradientTransform="matrix(-3501.289,4713.547,-4494.953,-3338.915,2063.635,1261.665)">
			<stop offset="0" stop-color="#4f52ff"/>
			<stop offset="1" stop-color="#4042e2"/>
		</linearGradient>
		<linearGradient id="g4" x2="1" gradientUnits="userSpaceOnUse" gradientTransform="matrix(659.365,-277.809,147.968,351.193,1308.06,824.349)">
			<stop offset="0" stop-color="#53d8ff"/>
			<stop offset="1" stop-color="#3840f7"/>
		</linearGradient>
		<clipPath clipPathUnits="userSpaceOnUse" id="cp1">
			<path d="m848.97 901.54c-6.33 349.81-24.81 1513.45 0.71 1942.94 3.73 62.78 54.5 112.36 117.35 114.49 258.78 8.76 922.39 25.8 1300.66-13.87 68.11-7.15 120.31-63.66 122.31-132.12 10.44-356.97 38.96-1440.76 14.18-1865.45-3.96-67.75-57.85-121.83-125.57-126.24-280.17-18.22-999.63-60.28-1321.27-34.78-60.38 4.79-107.28 54.48-108.37 115.03z"/>
		</clipPath>
		<linearGradient id="g5" x2="1" gradientUnits="userSpaceOnUse" gradientTransform="matrix(-456.778,425.431,-57.724,-61.977,1387.624,2339.565)">
			<stop offset="0" stop-color="#09005d"/>
			<stop offset="1" stop-color="#1a0f91"/>
		</linearGradient>
		<linearGradient id="g6" x2="1" gradientUnits="userSpaceOnUse" gradientTransform="matrix(-528.43,875.492,-872.387,-526.557,2167.768,1342.577)">
			<stop offset="0" stop-color="#09005d"/>
			<stop offset="1" stop-color="#1a0f91"/>
		</linearGradient>
		<linearGradient id="g7" x2="1" gradientUnits="userSpaceOnUse" gradientTransform="matrix(260.508,-670.641,230.348,89.478,844.42,3369.732)">
			<stop offset="0" stop-color="#febbba"/>
			<stop offset="1" stop-color="#ff928e"/>
		</linearGradient>
		<linearGradient id="g8" x2="1" gradientUnits="userSpaceOnUse" gradientTransform="matrix(861.018,-10063.155,2559.274,218.975,840.462,5526.891)">
			<stop offset="0" stop-color="#febbba"/>
			<stop offset="1" stop-color="#ff928e"/>
		</linearGradient>
		<linearGradient id="g9" x2="1" gradientUnits="userSpaceOnUse" gradientTransform="matrix(110.423,0,0,344.595,871.412,2308.782)">
			<stop offset="0" stop-color="#febbba"/>
			<stop offset="1" stop-color="#ff928e"/>
		</linearGradient>
		<linearGradient id="g10" x2="1" gradientUnits="userSpaceOnUse" gradientTransform="matrix(96.626,163.521,-128.853,76.141,961.361,3184.785)">
			<stop offset="0" stop-color="#53d8ff"/>
			<stop offset="1" stop-color="#3840f7"/>
		</linearGradient>
		<linearGradient id="g11" x2="1" gradientUnits="userSpaceOnUse" gradientTransform="matrix(25.655,188.195,-148.298,20.216,882.582,3132.852)">
			<stop offset="0" stop-color="#53d8ff"/>
			<stop offset="1" stop-color="#3840f7"/>
		</linearGradient>
		<linearGradient id="g12" x2="1" gradientUnits="userSpaceOnUse" gradientTransform="matrix(-250.878,586.875,-424.189,-181.333,1169.764,2342.85)">
			<stop offset="0" stop-color="#e1473d"/>
			<stop offset="1" stop-color="#e9605a"/>
		</linearGradient>
		<linearGradient id="g13" x2="1" gradientUnits="userSpaceOnUse" gradientTransform="matrix(78.426,0,0,148.162,992.006,2062.404)">
			<stop offset="0" stop-color="#febbba"/>
			<stop offset="1" stop-color="#ff928e"/>
		</linearGradient>
		<linearGradient id="g14" x2="1" gradientUnits="userSpaceOnUse" gradientTransform="matrix(-75.566,508.811,-360.623,-53.558,1311.48,455.152)">
			<stop offset="0" stop-color="#ff928e"/>
			<stop offset="1" stop-color="#fe7062"/>
		</linearGradient>
		<linearGradient id="g15" x2="1" gradientUnits="userSpaceOnUse" gradientTransform="matrix(-678.286,388.577,-492.826,-860.258,1452.141,2107.116)">
			<stop offset="0" stop-color="#febbba"/>
			<stop offset="1" stop-color="#ff928e"/>
		</linearGradient>
		<linearGradient id="g16" x2="1" gradientUnits="userSpaceOnUse" gradientTransform="matrix(-678.284,388.577,-197.287,-344.376,1519.536,2224.76)">
			<stop offset="0" stop-color="#febbba"/>
			<stop offset="1" stop-color="#ff928e"/>
		</linearGradient>
		<linearGradient id="g17" x2="1" gradientUnits="userSpaceOnUse" gradientTransform="matrix(-152.402,-222.852,164.731,-112.655,1122.629,2062.373)">
			<stop offset="0" stop-color="#febbba"/>
			<stop offset="1" stop-color="#ff928e"/>
		</linearGradient>
		<linearGradient id="g18" x2="1" gradientUnits="userSpaceOnUse" gradientTransform="matrix(-214.955,349.301,-208.859,-128.529,1102.123,1738.588)">
			<stop offset="0" stop-color="#09005d"/>
			<stop offset="1" stop-color="#1a0f91"/>
		</linearGradient>
		<linearGradient id="g19" x2="1" gradientUnits="userSpaceOnUse" gradientTransform="matrix(-271.429,370.131,-370.131,-271.429,1903.991,1567.266)">
			<stop offset="0" stop-color="#ff928e"/>
			<stop offset="1" stop-color="#fe7062"/>
		</linearGradient>
		<linearGradient id="g20" x2="1" gradientUnits="userSpaceOnUse" gradientTransform="matrix(-226.699,392.945,-392.945,-226.699,2125.453,622.537)">
			<stop offset="0" stop-color="#ff928e"/>
			<stop offset="1" stop-color="#fe7062"/>
		</linearGradient>
		<linearGradient id="g21" x2="1" gradientUnits="userSpaceOnUse" gradientTransform="matrix(-226.698,392.945,-333.781,-192.565,2145.214,633.939)">
			<stop offset="0" stop-color="#ff928e"/>
			<stop offset="1" stop-color="#fe7062"/>
		</linearGradient>
		<linearGradient id="g22" x2="1" gradientUnits="userSpaceOnUse" gradientTransform="matrix(213.276,-174.651,174.651,213.275,1866.392,1178.302)">
			<stop offset="0" stop-color="#ff928e"/>
			<stop offset="1" stop-color="#fe7062"/>
		</linearGradient>
		<linearGradient id="g23" x2="1" gradientUnits="userSpaceOnUse" gradientTransform="matrix(84.285,240.815,-104.357,36.525,2368.834,1808.371)">
			<stop offset="0" stop-color="#febbba"/>
			<stop offset="1" stop-color="#ff928e"/>
		</linearGradient>
		<linearGradient id="g24" x2="1" gradientUnits="userSpaceOnUse" gradientTransform="matrix(-63.488,-128.07,65.864,-32.65,2433.583,1962.227)">
			<stop offset="0" stop-color="#febbba"/>
			<stop offset="1" stop-color="#ff928e"/>
		</linearGradient>
		<linearGradient id="g25" x2="1" gradientUnits="userSpaceOnUse" gradientTransform="matrix(537.809,584.986,-894.824,822.66,2669.305,3270.338)">
			<stop offset="0" stop-color="#09005d"/>
			<stop offset="1" stop-color="#1a0f91"/>
		</linearGradient>
		<linearGradient id="g26" x2="1" gradientUnits="userSpaceOnUse" gradientTransform="matrix(-47.771,0,0,-48.442,2843.87,3313.786)">
			<stop offset="0" stop-color="#febbba"/>
			<stop offset="1" stop-color="#ff928e"/>
		</linearGradient>
		<linearGradient id="g27" x2="1" gradientUnits="userSpaceOnUse" gradientTransform="matrix(457.624,620.251,-570.065,420.597,2626.958,2608.782)">
			<stop offset="0" stop-color="#09005d"/>
			<stop offset="1" stop-color="#1a0f91"/>
		</linearGradient>
		<linearGradient id="g28" x2="1" gradientUnits="userSpaceOnUse" gradientTransform="matrix(537.806,584.982,-641.25,589.535,2789.955,3159.421)">
			<stop offset="0" stop-color="#09005d"/>
			<stop offset="1" stop-color="#1a0f91"/>
		</linearGradient>
		<linearGradient id="g29" x2="1" gradientUnits="userSpaceOnUse" gradientTransform="matrix(-41.246,0,0,-63.391,3016.035,3311.336)">
			<stop offset="0" stop-color="#febbba"/>
			<stop offset="1" stop-color="#ff928e"/>
		</linearGradient>
		<linearGradient id="g30" x2="1" gradientUnits="userSpaceOnUse" gradientTransform="matrix(457.624,620.25,-425.807,314.163,2708.518,2548.606)">
			<stop offset="0" stop-color="#09005d"/>
			<stop offset="1" stop-color="#1a0f91"/>
		</linearGradient>
		<linearGradient id="g31" x2="1" gradientUnits="userSpaceOnUse" gradientTransform="matrix(-75.566,508.815,-525.41,-78.031,3073.554,716.846)">
			<stop offset="0" stop-color="#ff928e"/>
			<stop offset="1" stop-color="#fe7062"/>
		</linearGradient>
		<linearGradient id="g32" x2="1" gradientUnits="userSpaceOnUse" gradientTransform="matrix(84.285,240.816,-132.667,46.433,2440.873,1783.156)">
			<stop offset="0" stop-color="#febbba"/>
			<stop offset="1" stop-color="#ff928e"/>
		</linearGradient>
		<linearGradient id="g33" x2="1" gradientUnits="userSpaceOnUse" gradientTransform="matrix(-75.566,508.812,-485.254,-72.067,3316.276,752.893)">
			<stop offset="0" stop-color="#ff928e"/>
			<stop offset="1" stop-color="#fe7062"/>
		</linearGradient>
		<linearGradient id="g34" x2="1" gradientUnits="userSpaceOnUse" gradientTransform="matrix(-122.109,0,0,-131.714,2944.176,2083.018)">
			<stop offset="0" stop-color="#febbba"/>
			<stop offset="1" stop-color="#ff928e"/>
		</linearGradient>
		<linearGradient id="g35" x2="1" gradientUnits="userSpaceOnUse" gradientTransform="matrix(134.26,-81.889,68.028,111.534,2793.024,2005.334)">
			<stop offset="0" stop-color="#febbba"/>
			<stop offset="1" stop-color="#ff928e"/>
		</linearGradient>
		<linearGradient id="g36" x2="1" gradientUnits="userSpaceOnUse" gradientTransform="matrix(-173.448,136.995,-197.349,-249.863,2998.353,1837.126)">
			<stop offset="0" stop-color="#09005d"/>
			<stop offset="1" stop-color="#1a0f91"/>
		</linearGradient>
		<linearGradient id="g37" x2="1" gradientUnits="userSpaceOnUse" gradientTransform="matrix(120.795,-73.676,36.353,59.603,2828.289,2035.872)">
			<stop offset="0" stop-color="#febbba"/>
			<stop offset="1" stop-color="#ff928e"/>
		</linearGradient>
		<linearGradient id="g38" x2="1" gradientUnits="userSpaceOnUse" gradientTransform="matrix(99.272,-712.959,234.057,32.59,3046.422,2980.852)">
			<stop offset="0" stop-color="#febbba"/>
			<stop offset="1" stop-color="#ff928e"/>
		</linearGradient>
		<linearGradient id="g39" x2="1" gradientUnits="userSpaceOnUse" gradientTransform="matrix(79.219,-568.943,295.083,41.087,3058.244,2912.269)">
			<stop offset="0" stop-color="#febbba"/>
			<stop offset="1" stop-color="#ff928e"/>
		</linearGradient>
	</defs>
	<style>
		.s0 { fill: url(#g1) } 
		.s1 { fill: #bdd0fb } 
		.s2 { opacity: .5;fill: #ffffff } 
		.s3 { fill: #91b3fa } 
		.s4 { fill: url(#g2) } 
		.s5 { fill: url(#g3) } 
		.s6 { opacity: .22;fill: url(#g4) } 
		.s7 { opacity: .41;fill: #91b3fa } 
		.s8 { fill: url(#g5) } 
		.s9 { opacity: .2;fill: #ffffff } 
		.s10 { fill: url(#g6) } 
		.s11 { fill: #ffffff } 
		.s12 { fill: url(#g7) } 
		.s13 { fill: url(#g8) } 
		.s14 { fill: url(#g9) } 
		.s15 { fill: url(#g10) } 
		.s16 { fill: url(#g11) } 
		.s17 { fill: url(#g12) } 
		.s18 { fill: url(#g13) } 
		.s19 { fill: url(#g14) } 
		.s20 { fill: url(#g15) } 
		.s21 { fill: url(#g16) } 
		.s22 { fill: url(#g17) } 
		.s23 { fill: url(#g18) } 
		.s24 { fill: url(#g19) } 
		.s25 { fill: url(#g20) } 
		.s26 { fill: url(#g21) } 
		.s27 { opacity: .8;fill: #ffffff } 
		.s28 { fill: url(#g22) } 
		.s29 { fill: url(#g23) } 
		.s30 { fill: url(#g24) } 
		.s31 { fill: url(#g25) } 
		.s32 { fill: url(#g26) } 
		.s33 { fill: url(#g27) } 
		.s34 { fill: url(#g28) } 
		.s35 { fill: url(#g29) } 
		.s36 { fill: url(#g30) } 
		.s37 { fill: url(#g31) } 
		.s38 { fill: url(#g32) } 
		.s39 { fill: url(#g33) } 
		.s40 { fill: url(#g34) } 
		.s41 { fill: url(#g35) } 
		.s42 { fill: url(#g36) } 
		.s43 { fill: url(#g37) } 
		.s44 { fill: url(#g38) } 
		.s45 { fill: url(#g39) } 
	</style>
	<g id="Illustration">
		<g>
			<path class="s0" d="m2776.5 2785.7c-57.2 59.5-111.4 97.9-154.1 128.3-503 356.4-1098.1 252.5-1224.6 227.2-186.7-37.5-547.7-110-808.8-413.2-394.8-458.7-333.3-1181.5-27-1658.6 56-87.2 351.9-571.6 953.4-649.3 364.1-47 788.4 47.8 1095.7 302.2 645.1 533.8 599.1 1612.4 165.4 2063.4z"/>
			<g>
				<g>
					<path class="s1" d="m1898.5 3109.1c0 0 53.8-1530.6 838-2487.6 10.2-12.5 28.9-10.1 35.2 4.7 99 232.9 663.5 1733.1-873.2 2482.9z"/>
					<path class="s2" d="m2705.5 1064.8c0 0-0.8 8.3-2.6 23.9-1.8 15.6-4.7 38.5-8.7 67.5-3.9 29.1-9.4 64.3-16.1 104.7-3.5 20.1-7 41.5-11.3 64.1q-3.2 16.9-6.4 34.6-3.5 17.8-7.1 36.3c-4.7 24.7-10.4 50.3-15.8 76.8-6.1 26.5-11.8 53.9-18.6 81.9q-5.1 21-10.2 42.6-5.5 21.4-11.1 43.4c-7.3 29.4-15.4 59.2-23.6 89.5-3.9 15.2-8.5 30.4-12.8 45.7-4.5 15.4-8.8 30.8-13.4 46.3q-7.1 23.2-14.3 46.6-3.6 11.7-7.2 23.5-3.8 11.7-7.7 23.4-7.7 23.5-15.4 47.2c-5.2 15.8-10.9 31.4-16.3 47.1-5.6 15.7-10.9 31.6-16.7 47.3q-8.8 23.4-17.5 46.9l-8.7 23.6c-2.9 7.8-6.1 15.5-9.1 23.3q-9.2 23.3-18.3 46.6c-6 15.5-12.6 30.7-19 46q-9.7 22.9-19.3 45.6c-13.2 30.1-26.8 59.8-40 89.1-14 29-27.8 57.6-41.4 85.8-14.4 27.7-28.5 55-42.3 81.8-14.4 26.3-28.6 52-42.4 77.1-14.2 24.8-28.5 48.6-42.1 71.8q-5.2 8.7-10.3 17.2-5.3 8.4-10.5 16.6-10.4 16.4-20.4 32.1-10.1 15.8-19.6 30.9-10.1 14.8-19.7 28.8c-12.7 18.8-24.8 36.6-36.2 53.3-24 32.5-44.4 61.1-62 84.1-35.9 45.5-56.4 71.5-56.4 71.5l-0.1 0.1c-1.1 1.5-1 3.7 0.4 4.9 1.4 1.1 3.4 0.9 4.5-0.5 0 0 21.3-25.4 58.5-69.9 18.2-22.6 39.4-50.9 64.1-83 11.8-16.5 24.4-34 37.6-52.6q9.9-13.9 20.2-28.6 9.9-15 20.2-30.7 10.2-15.7 20.9-32.1 5.4-8.1 10.9-16.4 5.2-8.5 10.5-17.2c13.9-23.1 28.7-46.8 43.4-71.6 14.2-25 28.7-50.7 43.7-76.9 14-26.8 28.4-54.2 43-82 13.9-28.2 27.9-56.9 42.1-86 13.4-29.5 27.3-59.2 40.7-89.4q9.7-22.9 19.5-45.8c6.5-15.4 13.3-30.6 19.3-46.3q9.4-23.3 18.7-46.7c3.1-7.8 6.3-15.6 9.3-23.4l8.8-23.7q8.7-23.6 17.5-47.3c5.8-15.7 11-31.7 16.5-47.5 5.4-15.9 11.1-31.6 16.2-47.5q7.7-23.8 15.3-47.4 3.8-11.9 7.6-23.6 3.6-11.9 7.1-23.7 7.2-23.6 14.2-46.9c4.6-15.6 8.8-31.1 13.2-46.6 4.3-15.4 8.9-30.6 12.8-45.9 7.9-30.6 16.2-60.5 23.1-90.1q5.3-22.2 10.5-43.8 4.8-21.7 9.6-42.9c6.5-28.2 11.9-55.8 17.6-82.4 5.1-26.8 10.4-52.5 14.8-77.4 9.3-49.6 16.4-95.4 22.4-135.9 5.7-40.6 10.4-76.1 13.7-105.3 3.4-29.2 5.5-52.3 6.8-68 1.4-15.7 1.9-24.1 1.9-24.1 0.1-2-1.3-3.6-3.1-3.6-1.7-0.1-3.2 1.3-3.4 3.2z"/>
				</g>
				<g>
					<path class="s3" d="m2091.1 3202.1c0 0 145.4-1761.2 1017.9-2213.5 15.5-8 34.5 0.5 38.7 17.5 49.5 196.7 242.5 1259.2-1056.6 2196z"/>
					<path class="s2" d="m3013.7 1291.9c0 0-2.6 7.6-7.3 22-4.6 14.3-11.9 35.2-21.1 61.8-4.5 13.3-10 27.9-15.7 43.9-5.8 15.9-11.8 33.2-18.8 51.6-6.9 18.3-14.2 37.9-21.9 58.5-7.7 20.6-16.5 42-25.2 64.5-17.4 45-37.6 93.2-58.6 144.4-10.4 25.6-22 51.5-33.4 78.3-11.6 26.6-22.9 54-35.4 81.5-12.4 27.4-25 55.4-37.7 83.7-6.5 14.1-12.7 28.5-19.4 42.6q-10.1 21.3-20.3 42.8c-13.6 28.6-27.2 57.4-41 86.4-13.9 28.8-28.6 57.5-43.1 86.2l-21.7 43.1c-7.3 14.3-14.3 28.7-22 42.8-15.2 28.2-30.3 56.3-45.3 84.2-29.5 56-60.8 109.9-90.5 162.3q-11.2 19.7-22.2 39-5.4 9.7-10.7 19.3-5.7 9.5-11.2 18.8c-14.8 24.9-29.3 49.3-43.4 73.1-14.2 23.7-27.9 46.9-40.9 69.3-13.8 22.1-27 43.4-39.8 63.9-25.3 41-48.5 78.6-69 112-21.4 32.8-40.3 61.3-55.3 85.1-15.2 23.7-27.1 42.4-35.2 55.1-8 12.8-12.3 19.6-12.3 19.6l-0.1 0.1c-1.2 1.9-0.6 4.3 1.3 5.5 1.7 1.1 4.1 0.6 5.3-1 0 0 4.7-6.5 13.6-18.8 8.8-12.2 21.7-30.2 38.2-53.2 16.5-22.8 35.9-51 58.6-83.2 22.1-32.5 45.8-69.9 72-110.5 13-20.4 26.6-41.7 40.6-63.7 13.4-22.3 27.1-45.5 41.1-69.5 27.9-47.8 58.3-97.7 86.5-151.3 14.4-26.5 29-53.5 43.9-80.9q5.5-10.2 11.1-20.5c3.7-6.9 7.2-14 10.8-21q10.7-21 21.5-42.2c14.4-28.2 29-56.7 43.6-85.3 7.5-14.2 14.3-28.8 21.4-43.2l21.1-43.4c14.1-29 28.2-58 42.3-86.8 13.6-29.1 27.1-58 40.6-86.8q10.1-21.5 20-42.9c6.7-14.2 12.9-28.6 19.2-42.7 12.7-28.4 25.2-56.5 37.4-84.1 12.4-27.5 23.6-55.1 35.1-81.8 11.2-26.8 22.7-52.8 33-78.5 20.7-51.3 40.7-99.7 57.9-144.9 17.6-44.9 33.1-86.5 46.9-123.2 7-18.3 13-35.7 18.8-51.7 5.7-16 11.2-30.6 15.7-43.9 9.3-26.6 16.6-47.6 21.3-62 4.7-14.3 7.2-22 7.2-22 0.7-2-0.4-4.3-2.5-5-2.1-0.7-4.3 0.5-5 2.6z"/>
				</g>
			</g>
			<g>
				<g>
					<path class="s4" d="m734.7 771.7c-0.1 426.9 1.8 1899.5 31 2420.6 3.1 55.2 48.5 98.5 103.8 98.9 273.5 2.3 1060.1 5.6 1506.6-24.2 93-6.2 165.2-83.4 164.9-176.6-1.8-448.1-12.3-1708.2-75.2-2284-7.5-69-63.1-122.7-132.3-127.9-298.4-22.5-1090.6-75.8-1476.1-41.2-69.5 6.2-122.7 64.6-122.7 134.4z"/>
					<path class="s5" d="m849 901.5c-6.4 349.8-24.8 1513.5 0.7 1943 3.7 62.8 54.5 112.3 117.3 114.5 258.8 8.7 922.4 25.8 1300.7-13.9 68.1-7.1 120.3-63.7 122.3-132.1 10.4-357 39-1440.8 14.2-1865.5-4-67.7-57.9-121.8-125.6-126.2-280.2-18.2-999.6-60.3-1321.3-34.8-60.3 4.8-107.2 54.5-108.3 115z"/>
					<path class="s6" d="m1408.6 698.3c0.3 13.1 10.8 23.6 23.9 24 64.6 1.8 246.7 6.9 328.1 9.6 16 0.5 28.2-14.2 24.8-29.9l-0.6-2.6c-2.3-10.7-11.4-18.6-22.4-19.3-55-3.7-221.1-13.6-330.8-7-13.2 0.8-23.3 12-23 25.2z"/>
				</g>
				<g>
					<g id="Clip-Path" clip-path="url(#cp1)">
						<g>
							<path class="s7" d="m810 2939.1c1.9 51.4 42.4 91.9 91.2 91.3l380.8-4.6c50.3-0.6 90.4-44.5 89.2-97.5l-13.5-562.6c-1.1-46.7-38-83.7-82.4-82.5l-490.1 13z"/>
							<path class="s7" d="m815.3 904.3c-49.7 2.3-88.2 46.5-86.2 98.9l11.1 288.7c205.4-6.5 653.6-28.5 873.6-39.5 31.6-1.6 56.4-29.2 56.3-62.6l-0.6-225.7c-0.2-54-43-97.1-94.2-94.7z"/>
							<path class="s7" d="m1549.3 3001.4l-16.3-678.4c-0.7-31.2 22.7-57.2 52.4-58l359.1-9.5c12.9-0.4 25.4 4.2 35.4 12.7l408.1 352.1c12.6 10.9 19.9 27.2 19.7 44.4l-3.4 363.3c-0.3 31.8-25.4 57.1-55.6 56l-747.6-27.4c-28.4-1-51.1-25.2-51.8-55.2z"/>
							<path class="s7" d="m2495 2450.2l-440.9-333.3c-7.3-5.5-16.1-8.2-25.1-7.7l-337.5 19.4c-33.2 2-53.6-37.7-33.9-65.9l236.8-339.4c5.1-7.4 7.8-16.4 7.6-25.6l-8.1-339.8c-0.6-22.9 16.6-41.9 38.3-42.5l473.6-12.6c21.2-0.6 39 16.7 40.2 39l62.6 1106.4z"/>
							<g style="opacity: .55">
								<path class="s7" d="m2377.7 1179c-117.6 0.1-362-2.1-471.4-3.1-31.5-0.3-57.8-25.2-61.6-58.1l-37.2-323.2c-4.8-41.8 28.3-77.7 68.1-73.7l494.9 49.9c30.9 3.1 55 29.7 56.6 62.4l13 276.4c1.8 37.7-26.6 69.3-62.4 69.4z"/>
								<path class="s3" d="m2380.7 1214.6c15.2 0 29.3-6.5 39.8-18.1 10.4-11.6 15.8-26.8 15-42.8l-13-276.4c-1.3-28.6-22.7-52.1-49.7-54.9l-494.8-49.8c-16.7-1.7-33 4.6-44.7 17.2-11.7 12.7-17.2 30-15.2 47.5l37.2 323.2c3.3 28.8 26.6 50.7 54.1 51 102.2 1 352.7 3.3 471.3 3.1z"/>
							</g>
							<path class="s7" d="m1607.1 1350.4l-793 83.4c-33.8 3.6-59.2 34.3-57.8 70l23.5 611.2c1.5 37.6 31.7 66.7 67.3 64.8 148-7.8 350.7-18.5 475.4-25.1 20.1-1 38.2-12.2 49.9-29.5q0-0.1 0.1-0.2l276.9-407.8c18.8-27.8 28.9-61.1 28.8-95.2l-0.6-204.5c-0.1-39.9-32.8-71.1-70.5-67.1zm-228.7 363.9l-146.8 243.3c-9.3 15.5-25.4 25.1-42.8 25.6l-249.4 6.6c-28.9 0.8-52.9-23.3-53.7-53.8l-5.1-216.4c-0.7-29.3 20.4-54 48.1-56.3l401.4-33.6c43-3.6 71.4 46.2 48.3 84.6z"/>
						</g>
					</g>
				</g>
			</g>
			<g>
				<g>
					<path class="s8" d="m1508.7 2210l-777.3 640.6c-32.6 26.9-35.4 75.8-6.1 106.2l4.8 5c25.9 26.9 68.8 27.6 95.6 1.5l724.5-707.5z"/>
					<path fill-rule="evenodd" class="s9" d="m2002.9 2302c-243.6 86.2-508.9-37.4-593.6-276.6-84.7-239.2 43.8-502.2 287.4-588.4 243.6-86.3 508.9 37.4 593.6 276.6 84.6 239.1-43.8 502.2-287.4 588.4z"/>
					<path class="s10" d="m1679.4 1388.2c-270.7 95.9-413.9 389-319.8 654.8 94.1 265.8 389.8 403.6 660.5 307.8 270.6-95.8 413.8-388.9 319.7-654.7-94-265.8-389.7-403.7-660.4-307.9zm315.6 891.9c-230.9 81.7-483.2-35.8-563.4-262.6-80.3-226.7 41.9-476.8 272.8-558.6 230.9-81.7 483.2 35.9 563.4 262.6 80.3 226.8-41.8 476.9-272.8 558.6z"/>
					<path class="s3" d="m1416.8 2088c-0.7 0-1.3-0.4-1.7-1-5.4-10.9-10.5-22.1-15.2-33.3-0.3-1 0.1-2.1 1-2.4 1-0.4 2.1 0 2.4 1 4.6 11.1 9.7 22.2 15.1 33 0.5 0.9 0.1 2-0.8 2.5q-0.4 0.2-0.8 0.2zm-44.3-135.8c-0.9 0-1.7-0.6-1.8-1.5-5.4-32.8-7.3-66.3-5.6-99.5 4.8-94.1 37.4-184.4 94.2-261.2 58.2-78.5 138.1-137.5 231.2-170.4 87.5-31 181.2-36.8 270.9-16.8 1 0.3 1.6 1.2 1.4 2.2-0.3 1-1.2 1.7-2.2 1.4-89.1-19.8-182-14.1-268.9 16.7-92.4 32.7-171.7 91.2-229.4 169.1-56.4 76.2-88.7 165.8-93.5 259.2-1.7 32.9 0.2 66.1 5.5 98.7 0.2 1-0.5 1.9-1.5 2.1q-0.1 0-0.3 0z"/>
					<path class="s11" d="m788.4 2960.2c-30.1 0-49.6-10.5-58-31.3-8.6-21.1-2.1-45.9 16-61.5l92.4-79.7c0.7-0.7 1.9-0.6 2.6 0.2 0.6 0.7 0.5 1.9-0.2 2.6l-92.4 79.7c-16.9 14.6-23 37.6-15 57.3 7.7 19.3 26.1 29 54.6 29 0.3 0 0.6 0 0.9 0 1.1 0 1.9 0.9 1.9 1.9 0 1-0.8 1.8-1.8 1.8q-0.5 0-1 0z"/>
					<path class="s11" d="m868.4 2766.3c-0.5 0-1-0.2-1.4-0.6-0.6-0.8-0.5-1.9 0.2-2.6l12-10.3c0.8-0.7 1.9-0.6 2.6 0.2 0.7 0.7 0.6 1.9-0.2 2.6l-12 10.3c-0.3 0.3-0.7 0.4-1.2 0.4z"/>
				</g>
				<g>
					<path class="s12" d="m1051 2758.4l-92.2 23 23 173c0 0-34.6 34.6-46.1 80.8-11.5 46.1-22.2 239.8-22.2 239.8l-21.9 13.3-2.6 11 63.7 85.7-10.6-68.2c-1.7-10.8 1.2-32.8 0.3-33.2 34.6-92.3 108.6-352.2 108.6-352.2z"/>
					<path class="s13" d="m1078 3300.5c-1 0-2 0.1-3 0 4.5-55.6 24.9-300.4 45.2-392.2 23.1-103.8-34.6-311.4-34.6-311.4l-103.8 103.8 57.7 196.1c-39.5 59.3 6.5 406.4 5.5 406.3v0.8l-15 20.6 1.8 11.3 91.9 54.2-36.1-58.7c-5.8-9.4-8.9-19.9-9.6-30.8z"/>
					<path class="s14" d="m961.2 2136.5c0 0-202.1 227.8 0 344.6l20.6-14.9c0 0-100.3-96.1 0-213.7z"/>
					<path class="s15" d="m1129.8 3398.5h-29.3c-5.5 0-10.7-2.5-14.1-6.9-9.1-11.8-28.1-35-37.1-35.6-12.2-0.8-10.7 42.5-10.7 42.5h-6.8l-8.7-53.9c-2.1-13.5 4.6-27 16.8-33.3 0 0 2.8 20.6 17.9 29.7 15.1 9.2 61.5 41.8 61.5 41.8 0 0 5.7-0.8 11.9 0.3 9.3 1.7 8 15.4-1.4 15.4z"/>
					<path class="s16" d="m955 3395.2l-27.1-11.4c-5-2.1-8.8-6.5-10.2-11.8-3.9-14.5-12.3-43.2-20.5-47.3-10.9-5.4-26.3 35.1-26.3 35.1l-6.3-2.6 12.9-53c3.3-13.4 14.7-23.2 28.4-24.3 0 0-5.4 20.1 5 34.4 10.4 14.2 40.5 62.3 40.5 62.3 0 0 5.5 1.5 10.8 5 7.9 5.1 1.4 17.2-7.2 13.6z"/>
					<path class="s17" d="m1112.1 2421.4c0 0-3.4 20.7 1.6 77.9 4.9 57.2 28.7 191.4 23.8 319.7 0 0-67.5 15.8-184.8 8.3 0 0-49.5-200.4-37.5-276.6 12.1-76.2 77.5-130.9 77.5-130.9z"/>
					<path fill-rule="evenodd" class="s18" d="m1062.2 2039.4l8.2 97.1h-78.4l19.5-148.2z"/>
					<path class="s19" d="m968.8 2123.1c27-1.5 87.6-4.3 130.4-2 22.6 1.3 41.5 17.5 46.1 39.6l10.5 50.1c3.9 18.7 3.3 38-1.7 56.4l-42 154.2c0 0-37.4 22.4-119.4-1.6 0 0-72-171.8-42.5-281.6 2.3-8.6 9.8-14.7 18.6-15.1z"/>
					<path class="s20" d="m1143.3 2151.7c11.5 30.4 22 62.3 33.2 92.2 5.7 15 11.4 29.7 17.6 43.1 3.2 6.7 6.6 12.9 9.8 18.5 3.1 5.5 6.7 10.1 8.5 12.2 0.4 0.3-0.8 0.6-1.2 0.6-0.3 0 7.8 1.3 10.2 1.7h9.7c13.8-0.7 29.5-3.2 45.2-6.2 31.7-5.9 64.7-14.2 98.5-20.5l0.3-0.1c6.5-1.2 12.7 3.1 13.9 9.6 0.8 4.3-0.8 8.4-3.8 11.1-13.7 12-28.2 21.9-43.2 31.5-7.5 4.6-15.2 9.1-23 13.5-8 4.1-16 8.1-24.3 11.9-16.7 7.3-33.9 14-53.8 18.3-5.2 0.9-10.4 1.8-15.8 2.5-6 0.2-11.5 0.8-18.1 0.4q-5.2-0.5-10.5-1.3c-1.8-0.3-3.2-0.4-5.5-1q-3.6-1.1-7.1-2.4c-5-1.8-8.2-3.9-12.2-6.1-3.3-2.2-6.3-4.5-9.3-6.9-10.9-9.2-17.6-18.4-23.6-27.3-5.9-8.8-10.6-17.6-14.8-26.3-8.5-17.2-15.1-34.4-20.4-51.6-10.9-34.6-18.3-68.5-21.4-104.6-1.5-17.3 11.3-32.5 28.6-34 14.3-1.2 27.2 7.3 32.1 20.1z"/>
					<path class="s21" d="m1364.2 2308.8l14-33.2 73.6-18.4c0 0 5.9 12.8-25 18.4 0 0 11 12.2 5.2 26.5-5.9 14.4-68.5 28.8-67.8 6.7z"/>
					<path class="s22" d="m1095.4 1927.3c2.8 1.7 24.8 79.5 6.4 112.1-18.5 32.6-75-3.9-90.3-51.1-15.3-47.2 9.3-105 83.9-61z"/>
					<path class="s23" d="m949 1988.3c-12.6 62.1-54.6 45.1-84.3 72.7-48.2 44.7-117.1-1.4-184.1 41-48.3 30.6-71.6 108.9-48.4 172.2 32.1 87.5 142 123.5 198.9 96.9 54.4-25.5 46.7-101.9 119.9-131.4 31-12.5 46.4-4.4 65-22.9 32.6-32.5 23.8-95.6 20.4-119.9-7.4-52.7-25-62.3-16.6-85.4 16.4-45.1 93.1-35.8 99.5-67.6 5.8-29-49.8-83.9-102-75.2-80.9 13.4-62.6 92-68.3 119.6z"/>
					<path class="s3" d="m656.3 2259.3c-0.9 0-1.8-0.6-2-1.6-10.4-43-5.7-78.2 13.9-104.8 32.6-44 95.9-48.4 96.6-48.4 1-0.2 2.1 0.8 2.2 1.9 0.1 1.2-0.8 2.2-2 2.3-0.6 0-62 4.3-93.4 46.8-18.8 25.4-23.3 59.5-13.2 101.2 0.3 1.1-0.4 2.3-1.6 2.6q-0.2 0-0.5 0z"/>
					<path class="s3" d="m863.7 2298.7q-0.2 0-0.3-0.1c-0.6-0.1-0.9-0.7-0.8-1.2 10.1-38.7 27.8-65.6 52.6-79.9 18.1-10.5 35-11.4 49.9-12.3 14.4-0.8 26.8-1.5 36.8-10.4 20.7-18.4 19.5-62.6-3.5-131.3-0.2-0.6 0.1-1.2 0.6-1.4 0.6-0.1 1.2 0.2 1.4 0.7 23.3 69.6 24.3 114.6 2.9 133.6-10.5 9.4-23.3 10.1-38.1 10.9-14.6 0.9-31.3 1.8-48.9 12-24.3 14-41.7 40.5-51.6 78.6-0.1 0.5-0.6 0.8-1 0.8z"/>
					<path class="s3" d="m979 1972.9q-0.2 0-0.3 0c-0.6-0.2-0.9-0.8-0.7-1.4 8-23.8 31.1-20.3 55.6-16.5 15.5 2.4 31.5 4.8 45.1 0.8 10.1-3 16.2-7.7 17.9-13.9 3-10.5-7.4-22.2-7.5-22.3-0.4-0.5-0.4-1.1 0-1.5 0.5-0.4 1.1-0.4 1.5 0.1 0.5 0.5 11.3 12.7 8 24.3-1.9 6.9-8.4 12.1-19.3 15.3-14 4.2-30.3 1.7-46-0.7-24.6-3.8-45.8-7.1-53.3 15.1-0.1 0.4-0.5 0.7-1 0.7z"/>
				</g>
			</g>
			<g>
				<path fill-rule="evenodd" class="s24" d="m1755.2 1824.4c-30 0-54.2-24.3-54.2-54.2 0-30 24.2-54.3 54.2-54.3 30 0 54.2 24.3 54.2 54.3 0 29.9-24.2 54.2-54.2 54.2z"/>
				<g>
					<g>
						<g>
							<path fill-rule="evenodd" class="s25" d="m1749.6 1460.7c-103.2 0-186.7-83.4-186.7-186.6 0-103.2 83.5-186.7 186.7-186.7 103.2 0 186.6 83.5 186.6 186.7 0 103.2-83.4 186.6-186.6 186.6z"/>
							<path class="s26" d="m1935.9 1255.9h-186.3-186.7c0 0-14.8 107.7 151.7 391.4 7.3 12.4 20.6 21.8 34.9 21.9 14.4 0 27.7-10.4 35-22.8 166.5-283.7 151.4-390.5 151.4-390.5z"/>
						</g>
						<g>
							<path class="s11" d="m1754.9 1677.3v1.8h-5.4c-16.2 0-31.4-9.3-39.5-23.2-97.4-165.9-133.1-271-145.9-329.7-3.6-13.4-5.7-26.8-6.4-40.4-1.1-13.8-0.2-19.7-0.1-20.3l0.5-3.1c7.5-100.2 90.9-178.2 191.5-178.2 101.8 0 186 79.1 191.7 180.1 0.1 1.4 0.4 4.7 0.3 10.3v0.7c0 18.3-2.6 36.5-7.7 54-13.2 58.6-46.4 162.4-142.1 325.5-8.2 14-26.9 22.5-36.9 22.5zm-186.9-408c0 0 0.1 8.4 0.6 14.4v0.8c0.6 12.8 2.6 25.6 6 38.4l0.1 0.4c12.6 57.9 47.9 161.6 144.6 326.3 6.2 10.6 20.5 17.2 32.9 17.2l2.7 5.5v-5.4c3.3 0 24.2-6.7 30.5-17.4 95.1-162 130.7-264.9 144.1-322.8v-0.3c3.4-16.6 5.3-33.7 5.3-51.1l-1.9-0.8c0-5.4-1.2-8.3-1.3-9.1l-0.6-0.3c-5.3-95.4-85-170.1-181.2-170.1-95.9 0-175.5 74.2-181 170.4l-0.4 3.9z"/>
						</g>
						<path fill-rule="evenodd" class="s27" d="m1750.2 1381.2c-59.6 0-107.8-48.1-107.8-107.7 0-59.6 48.2-107.8 107.8-107.8 59.6 0 107.7 48.2 107.7 107.8 0 59.6-48.1 107.7-107.7 107.7z"/>
						<g>
							<path class="s28" d="m1750.2 1387.3c-62.8 0-113.8-51.1-113.8-113.8 0-62.8 51-113.8 113.8-113.8 62.7 0 113.8 51 113.8 113.8 0 62.7-51.1 113.8-113.8 113.8zm0-215.6c-56.1 0-101.8 45.7-101.8 101.8 0 56.1 45.7 101.7 101.8 101.7 56.1 0 101.7-45.6 101.7-101.7 0-56.1-45.6-101.8-101.7-101.8z"/>
						</g>
					</g>
					<g>
						<path class="s11" d="m1647.9 1161.3c-0.5 0-1-0.2-1.3-0.7-0.7-0.7-0.6-1.8 0.2-2.5 30.2-26 68.9-40.3 108.9-40.3 1 0 1.8 0.8 1.8 1.8 0 1-0.8 1.8-1.8 1.8-39.1 0-77 14-106.6 39.4-0.3 0.3-0.7 0.5-1.2 0.5z"/>
					</g>
					<g>
						<path class="s11" d="m1590.2 1286.8c-1 0-1.8-0.8-1.8-1.8 0-31.2 8.7-61.6 25-88 0.6-0.9 1.7-1.1 2.5-0.6 0.9 0.5 1.1 1.6 0.6 2.5-16 25.8-24.5 55.6-24.5 86.1 0 1-0.8 1.8-1.8 1.8z"/>
					</g>
				</g>
			</g>
			<g>
				<g>
					<path class="s29" d="m2406.2 1937.5c-1.2 4.2 13.8 10.4 22.6-6.4 0.3-8.1 5.2-42.7 0.4-49.3-25.7-35.1-75.6-79-75.6-79-8.4 8.3-1.5 16.4-1.5 16.4l24.2 25.3c-5 9.1-11.2 16.8-14.1 27.9-2.2 8.3-0.9 17.3 3.4 24.9 4.2 7.7 10 17.6 15.5 25.4 10.4 14.7 25.1 14.8 25.1 14.8z"/>
					<path class="s30" d="m2386.9 1860.8l22.1 18.7 6.9 18.6-19.7 21.8c0 0-6.6-36.9-11.5-44.9-4.9-8-2.4-11.9 2.2-14.2z"/>
				</g>
				<g>
					<path class="s31" d="m2839.3 3313.9c0 0 5.6 31.5 8.3 62.8 1.1 12.2-8.3 22.7-20.6 23.3-41.5 1.7-130.4 5.1-162.3 3.6-4.8-0.2-8-5.1-6.2-9.6 1.5-3.7 4.4-6.7 8-8.4l146.9-67.5z"/>
					<path class="s32" d="m2843.9 3295.4l-4.5 37.7c0 0-25.7 12-43.3-1.5l10.7-42z"/>
					<path class="s33" d="m2840.5 2586.3c1.9 9.9 10.4 491.5-41.1 707.4-0.8 3.5 0.9 7.1 4.3 8.5 7.9 3.2 23.4 7.9 41.9 8.5 5.8 0.2 10.9-3.5 12.5-9 14.8-50.1 85.3-301 94.5-540.7 10.3-267.8 0-9.1 0-9.1l-6.1-165.6z"/>
					<path class="s34" d="m3008.2 3330.4c0 0 8.9 15.9 17.5 58.2 1.5 7.6-3.8 14.9-11.5 15.7-13.8 1.3-34.9 3.1-51.8 3-7.8-0.1-13.9-6.9-13-14.6 1.9-15.5 7.7-40.8 25.8-60.5z"/>
					<path class="s35" d="m3016 3281.9l-10.4 57c0 0-10.4 7.7-30.8 2.1l5-61.4z"/>
					<path class="s36" d="m3044.3 2601.1c42.1 254.1-9.2 628.1-26.4 701.3-1.1 4.5-4.7 7.9-9.3 8.6-7.7 1.3-20.4 2.4-32.9-1.3-4.3-1.2-7.3-5.1-7.5-9.6-2.3-59.2 1.8-422.4-37.4-566-2-7.3-6.4-13.6-12.6-18l-76.1-54.1-5.9-87.5z"/>
					<g>
						<path class="s37" d="m2776 2119.6c126.2-2.1 265.4 33.1 265.4 33.1 37.6 219.5 6.6 472.7 6.6 472.7-97.7 25.6-207.9-15.7-207.9-15.7-16.3-91.7-92-349.9-92-349.9-61.7-7.7-112.5-25.5-154.3-49 31.9-36.9 47-84 53.5-111.8 44.6 13.8 89.8 21.2 128.7 20.6z"/>
						<path class="s38" d="m2403.2 1933.7c12.4-14.9 28.1-7.8 28.1-7.8 18.6 78.4 116 142 216 173.1-6.5 27.8-21.6 74.9-53.5 111.8-166-93.3-190.6-277.1-190.6-277.1z"/>
					</g>
					<path class="s39" d="m2993 2274.9l48.4-122.2c0 0 117.9 80.1 137.2 181.7-22.2 1.6-62.8 7.4-102.4 27.4-8.7-47.9-83.2-86.9-83.2-86.9z"/>
					<path class="s40" d="m2903.8 2017.2l40.1 116.1c0.7 1.9-0.1 4-1.9 5-10.9 6.1-50.3 23.6-97.9-6.6-4.9-3.1-8.3-8.2-9-14l-13-100.5c0 0 81.7 0 81.7 0z"/>
					<g>
						<path class="s41" d="m2816.4 1909.6c0 0-44.1 83-38.4 116.6 5.6 33.5 60.3 31.1 108 3.8l33.3-89.6z"/>
						<path class="s42" d="m2883.9 1986c-1.9-0.8-2.7-3.2-1.5-5 3.5-5.4 10.2-16.4 12.3-26 0 0 7.9-5.1-20.2-11.8-28.1-6.7-70-17.2-78.8-41.1-8.6-23.3 14-82 50-35.2 1.3 1.7 4 1.8 5.4 0 5.9-7.7 21.4-23.6 42.9-14 20.2 9.1 22.5 23.9 22.2 31.3-0.1 2.2 1.9 3.9 4 3.5 10.2-2 34.7-3.6 46.1 21.5 9.4 20.6 3.3 32.3-2.3 38-1.8 1.9-1 4.9 1.5 5.7 6.6 2.1 15.3 7.7 14.4 23.4-1.2 21.7-25.4 19.8-32.3 18.8-1.2-0.1-2.3 0.2-3.1 1.1-5.9 6.5-32.6 34.4-61.4 37.7-2.5 0.3-4.5-2.2-3.7-4.5l12.5-36.4c0.6-1.6-0.2-3.5-1.8-4.2z"/>
						<path class="s43" d="m2878.9 1991.2c0 0 31.4-21.5 33.7-3.4 2.2 18.1-28.3 26.3-43.5 19.5z"/>
					</g>
					<path class="s44" d="m3076.2 2361.8c0 0 41.2 185.9 3.9 290.4 45.7 21.2 37.3 17.2 37.3 17.2 0 0 90.5-264.5 61.2-335-57.6-6.2-86.1 9.3-102.4 27.4z"/>
					<path class="s45" d="m3080.1 2652.2c0 0-23.6 30.5-21.7 42.6 1.9 12.2 2.3 17.1 2.3 17.1 0 0 11.9-8.1 11.1-18.4-1.6 32.8-12.6 70.2-2.6 68.4 10-1.8 61.7-49.5 50-100.4-26.5-18.4-34-16.4-39.1-9.3z"/>
				</g>
			</g>
			<g>
				<g>
					<g style="opacity: .3">
						<path class="s3" d="m1054.2 1079.4c4.9-0.5 9.6 2.9 10.6 8 2.1 11 3.8 22.2 5 33.4 0.6 5.5-3.4 10.4-8.8 10.9q-0.1 0.1-0.2 0.1c-5.4 0.4-10.1-3.5-10.7-8.9-1.2-10.6-2.8-21.3-4.8-31.7-1.1-5.4 2.4-10.6 7.8-11.7q0.5-0.1 1.1-0.1zm6.9 86.1q0.6 0 1.2 0c5.5 0.2 9.8 4.7 9.6 10.2-0.3 11.2-1.1 22.6-2.4 33.7-0.6 5.5-5.5 9.4-11 8.7-5.4-0.6-9.3-5.5-8.7-10.9 1.2-10.6 2-21.4 2.3-32.1 0.1-5.1 4.1-9.1 9-9.6zm-12.1 85.6q1.6-0.2 3.3 0.2c5.3 1.4 8.5 6.8 7.1 12.1-2.8 10.9-6.1 21.8-9.9 32.4-1.8 5.1-7.5 7.8-12.6 6-5.2-1.8-7.9-7.5-6.1-12.6 3.6-10.1 6.8-20.4 9.4-30.7 1.1-4.2 4.7-7.1 8.8-7.4zm-31 80.6c1.8-0.1 3.7 0.2 5.4 1.1 4.9 2.6 6.8 8.5 4.2 13.4-5.1 10-10.8 19.8-16.8 29.3-3 4.6-9.1 6-13.7 3.1-4.7-2.9-6-9.1-3.1-13.7 5.7-9 11.1-18.4 16-27.9 1.7-3.1 4.7-5 8-5.3zm-48.2 71.8c2.5-0.2 5.2 0.5 7.3 2.3 4.1 3.5 4.7 9.8 1.1 14-7.2 8.5-15 16.9-22.9 24.8-3.9 3.9-10.2 3.9-14.1 0-3.8-3.9-3.8-10.2 0.1-14 7.6-7.6 14.9-15.5 21.8-23.6 1.7-2.1 4.2-3.3 6.7-3.5zm-62.9 59.3c3.3-0.3 6.7 1.1 8.8 3.9 3.3 4.4 2.4 10.6-2 13.9-8.9 6.7-18.3 13.2-27.8 19.1-4.7 3-10.8 1.5-13.7-3.1-2.9-4.6-1.5-10.8 3.1-13.7 9.1-5.6 18-11.8 26.5-18.2 1.6-1.1 3.3-1.8 5.1-1.9zm-360 55.5c1.4-0.1 2.8 0.1 4.2 0.6 10 3.5 20.4 6.6 30.7 9.3 5.3 1.4 8.5 6.8 7.1 12.1-1.3 5.3-6.7 8.5-12.1 7.1-10.8-2.8-21.7-6.1-32.3-9.8-5.2-1.8-7.9-7.5-6.1-12.7 1.3-3.8 4.7-6.2 8.5-6.6zm285.6-11.7c4.1-0.3 8.2 1.9 9.9 5.9 2.3 5 0 10.8-5 13.1-10.2 4.6-20.8 8.7-31.4 12.4-5.2 1.8-10.8-0.9-12.6-6.1-1.8-5.2 0.9-10.8 6.1-12.6 10.1-3.5 20.1-7.5 29.8-11.8q1.6-0.7 3.2-0.9zm-201.4 31q1-0.1 2 0.1c10.6 1.2 21.4 1.9 32.1 2.2 5.5 0.2 9.8 4.7 9.6 10.2-0.1 5.5-4.7 9.8-10.2 9.6-11.2-0.3-22.6-1.1-33.7-2.3-5.4-0.6-9.4-5.6-8.7-11 0.5-4.8 4.3-8.4 8.9-8.8zm119.1-4.8c5-0.5 9.6 2.9 10.6 7.9 1 5.4-2.5 10.6-7.8 11.7-11 2.2-22.3 3.9-33.5 5.1q-0.1 0-0.2 0c-5.3 0.5-10.1-3.4-10.7-8.8-0.6-5.4 3.3-10.3 8.8-10.9 10.6-1.2 21.3-2.8 31.7-4.9q0.6-0.1 1.1-0.1z"/>
						<path class="s3" d="m483.5 1489.4c2-0.2 4 0.2 5.8 1.2 4.5 2.6 9 5.1 13.6 7.4 4.9 2.6 6.8 8.5 4.2 13.4-2.5 4.9-8.5 6.8-13.3 4.2-4.8-2.5-9.6-5.1-14.3-7.7-4.8-2.8-6.4-8.8-3.7-13.6 1.7-2.9 4.6-4.7 7.7-4.9z"/>
					</g>
					<g style="opacity: .3">
						<path class="s3" d="m300.5 1248.6c4.7-0.4 9.2 2.7 10.5 7.5 1.2 4.9 2.6 10 4 14.9 1.6 5.2-1.4 10.8-6.7 12.3-5.2 1.6-10.7-1.4-12.3-6.7-1.5-5.2-3-10.4-4.3-15.7-1.3-5.3 1.9-10.7 7.2-12q0.8-0.2 1.6-0.3z"/>
						<path class="s3" d="m640.6 769q6.8-0.6 13.7-1c5.5-0.2 10.2 3.9 10.5 9.4 0.2 5.5-4 10.2-9.4 10.5-10.6 0.5-21.2 1.6-31.5 3-5.4 0.7-10.4-3.1-11.2-8.5-0.7-5.4 3.1-10.4 8.5-11.2 6.4-0.9 12.9-1.6 19.4-2.2zm66.1-0.2q0.8-0.1 1.7 0c11 0.9 22.1 2.2 33 4.1 5.4 0.9 9.1 6 8.2 11.4-0.9 5.4-6.1 9-11.5 8.1-10.3-1.7-20.9-3-31.3-3.9-5.5-0.4-9.6-5.2-9.1-10.6 0.4-4.9 4.2-8.7 9-9.1zm-136.6 13.1c4.7-0.4 9.1 2.6 10.4 7.2 1.5 5.3-1.6 10.8-6.9 12.3-10 2.8-20.2 6.1-30 9.8-5.1 1.9-10.8-0.7-12.8-5.8-1.9-5.1 0.7-10.8 5.8-12.8 10.4-3.9 21-7.3 31.7-10.3q0.9-0.3 1.8-0.4zm220.1 3.1c1.2-0.2 2.5 0 3.8 0.4 10.6 3.3 21.1 7.1 31.3 11.2 5.1 2.1 7.5 7.9 5.5 13-2.1 5-7.9 7.5-12.9 5.4-9.8-4-19.8-7.6-29.8-10.7-5.2-1.6-8.1-7.2-6.5-12.4 1.2-4 4.7-6.6 8.6-6.9zm-298.9 28.9c3.9-0.4 7.7 1.5 9.6 5.1 2.6 4.9 0.8 10.9-4 13.5-9.2 5-18.3 10.4-27.1 16.2-4.6 3-10.7 1.7-13.7-2.9-3-4.6-1.8-10.7 2.8-13.7 9.3-6.1 18.9-11.8 28.6-17.1 1.2-0.6 2.5-1 3.8-1.1zm-69.8 48.4c3-0.2 6.2 0.9 8.3 3.4 3.6 4.1 3.2 10.4-0.9 14-7.9 6.9-15.7 14.2-23 21.7-3.8 4-10.1 4.1-14 0.2-3.9-3.8-4-10.1-0.2-14 7.7-7.9 15.8-15.6 24.2-22.9 1.6-1.4 3.6-2.2 5.6-2.4zm-57.6 62.6c2.3-0.3 4.7 0.4 6.7 1.8 4.4 3.3 5.4 9.5 2.1 13.9-6.2 8.5-12.2 17.3-17.7 26.2-2.8 4.7-8.9 6.2-13.6 3.3-4.7-2.9-6.1-9-3.3-13.7 5.8-9.4 12.1-18.6 18.6-27.5 1.8-2.4 4.4-3.8 7.2-4zm-42.7 73.6c1.7-0.2 3.3 0.1 4.9 0.8 5 2.2 7.3 8 5.1 13-4.2 9.6-8.1 19.6-11.5 29.5-1.8 5.2-7.4 7.9-12.6 6.2-5.2-1.8-7.9-7.5-6.2-12.6 3.6-10.5 7.7-20.9 12.1-31.1 1.5-3.4 4.8-5.5 8.2-5.8zm-25.4 81.1q1.4-0.1 2.8 0.2c5.4 1 8.9 6.2 7.8 11.6-2 10.3-3.6 20.8-4.7 31.3-0.6 5.4-5.5 9.4-10.9 8.8-5.5-0.6-9.4-5.5-8.8-11 1.2-11 2.9-22 5-32.9 0.8-4.4 4.5-7.6 8.8-8zm-6.9 84.8q0.3 0 0.6-0.1c5.4-0.1 10 4.2 10.2 9.7 0.2 7.7 0.6 15.5 1.3 23.2q0.4 4.2 0.8 8.3c0.6 5.5-3.3 10.4-8.7 11-5.5 0.7-10.4-3.3-11-8.8q-0.5-4.3-0.9-8.7c-0.7-8.1-1.2-16.3-1.4-24.5-0.1-5.2 3.9-9.7 9.1-10.1z"/>
						<path class="s3" d="m868.3 819.3c1.9-0.2 4 0.2 5.8 1.3 4.7 2.6 9.3 5.5 13.9 8.4 4.7 2.9 6 9.1 3.1 13.7-3 4.6-9.1 6-13.7 3-4.4-2.7-8.8-5.4-13.2-8-4.8-2.7-6.4-8.8-3.6-13.5 1.6-2.9 4.6-4.7 7.7-4.9z"/>
					</g>
					<g>
						<path class="s3" d="m865.1 935.1c-1.4-1.5-3.5-1.9-5.3-1l-51.1 24.1c-22.2-14.2-46.8-25-73.1-31.5l-17.7-53.5c-0.6-1.9-2.4-3.2-4.4-3.2l-67.7-0.9c-1.9 0-3.7 1.2-4.4 3.1l-19 53.1c-26.5 5.8-51.4 15.9-74 29.5l-50.4-25.3c-1.8-0.9-3.9-0.6-5.3 0.8l-48.5 47.3c-1.4 1.3-1.8 3.5-0.9 5.3l24 51c-14.2 22.2-24.9 46.8-31.4 73.2l-53.6 17.7c-1.8 0.6-3.1 2.3-3.1 4.3l-0.9 67.7c0 2 1.2 3.7 3.1 4.4l53 19.1c5.9 26.5 16 51.4 29.6 73.9l-25.3 50.4c-0.9 1.8-0.6 3.9 0.8 5.4l47.2 48.4c1.4 1.4 3.5 1.8 5.3 1l51.1-24.1c22.2 14.2 46.8 24.9 73.1 31.5l17.7 53.5c0.7 1.9 2.4 3.2 4.4 3.2l67.7 0.8c1.9 0.1 3.7-1.2 4.4-3l19-53.1c26.5-5.9 51.4-16 74-29.6l50.4 25.4c1.8 0.9 3.9 0.5 5.3-0.8l48.5-47.3c1.4-1.4 1.8-3.5 0.9-5.3l-24-51c14.2-22.2 24.9-46.9 31.4-73.2l53.6-17.7c1.8-0.6 3.1-2.4 3.1-4.3l0.9-67.7c0-2-1.2-3.8-3.1-4.4l-53-19.1c-5.9-26.5-16-51.4-29.6-73.9l25.4-50.5c0.8-1.7 0.5-3.9-0.9-5.3z"/>
						<g>
							<path class="s1" d="m670 1099c33-3 64.1 18.7 72.1 51.9 8.7 36.5-13.9 73.3-50.4 82-17.7 4.2-35.9 1.3-51.4-8.2-15.5-9.5-26.3-24.5-30.6-42.2-8.7-36.4 13.9-73.2 50.4-81.9q4.9-1.2 9.9-1.6zm10.4 119.7q3.8-0.3 7.6-1.2c28-6.7 45.3-34.9 38.6-62.9-6.6-28-34.8-45.3-62.8-38.6-28 6.7-45.3 34.9-38.6 62.9 3.2 13.5 11.5 25 23.4 32.3 9.6 5.9 20.7 8.5 31.8 7.5z"/>
						</g>
						<g>
							<path class="s1" d="m659.9 1001.2q8.5-0.8 17.2-0.7 2.7 0.1 5.4 0.2c9 0.4 17.9 1.5 26.6 3.3q0.2 0.1 0.4 0.1 0.5 0.1 1 0.2 1 0.2 2 0.5c1.7 0.3 2.9 1.8 3 3.5q0.1 0.6-0.1 1.2c-0.5 2.1-2.6 3.5-4.7 3-11-2.5-22.3-3.9-33.7-4-56.5-0.7-106.5 28.1-135.4 72.2-16.1 24.5-25.6 53.7-26 85.1q-0.1 8.3 0.6 16.4c3.3 36.4 18.8 70.3 44.6 96.9 29.8 30.4 69.6 47.5 112.1 48.1 87.9 1.1 160.3-69.5 161.4-157.3q0.1-8.2-0.6-16.2c-2.1-23.3-9.2-45.8-20.9-66q-0.5-0.7-0.6-1.6c-0.1-1.5 0.6-3 2-3.8 1.9-1.1 4.3-0.4 5.4 1.5 12.4 21.1 19.8 44.8 22 69.2q0.7 8.4 0.6 17c-1.1 92.2-77.2 166.3-169.4 165.1-44.7-0.6-86.4-18.5-117.6-50.5-27.2-27.9-43.5-63.5-46.9-101.7q-0.7-8.5-0.6-17.2c0.5-44.7 18.5-86.5 50.5-117.7 27.8-27.1 63.5-43.4 101.7-46.8z"/>
						</g>
					</g>
				</g>
				<g>
					<g style="opacity: .3">
						<path class="s3" d="m1368.3 789.2c2.7-0.3 5.3 1.2 6.3 3.8 1.9 4.9 3.6 9.8 5.3 14.8 1 3.2-0.8 6.7-4 7.7-3.2 1.1-6.7-0.7-7.7-3.9-1.5-4.7-3.2-9.5-5-14.1-1.3-3.1 0.3-6.7 3.4-7.9q0.9-0.4 1.7-0.4z"/>
						<path class="s3" d="m1381.4 834.4c3.1-0.2 6 1.9 6.6 5 1.7 8.8 2.9 17.8 3.7 26.7q0.3 2.8 0.5 5.6c0.2 3.4-2.6 6.2-5.7 6.6-3.4 0.2-6.3-2.4-6.6-5.7q-0.1-2.8-0.4-5.4c-0.7-8.6-1.9-17.1-3.5-25.5-0.7-3.3 1.5-6.5 4.8-7.2q0.3 0 0.6-0.1zm4.3 63.5q0.4 0 0.9 0c3.4 0.2 6 3.1 5.8 6.4-0.6 10.9-1.9 21.8-3.8 32.4-0.6 3.4-3.8 5.6-7.1 5-3.4-0.6-5.6-3.8-5-7.1 1.9-10.2 3.1-20.6 3.6-30.9 0.2-3.1 2.6-5.5 5.6-5.8zm-11.3 62.6q1.2-0.1 2.4 0.3c3.2 1 5 4.4 4 7.6-3.2 10.4-7.1 20.7-11.6 30.5-1.4 3.1-5 4.5-8.1 3.1-3.1-1.4-4.5-5-3.1-8.1 4.3-9.5 8.1-19.2 11.1-29.1 0.8-2.4 2.9-4.1 5.3-4.3zm-26.3 58c1.3-0.2 2.6 0.1 3.8 0.8 2.9 1.8 3.8 5.6 2 8.5-5.7 9.2-12 18.2-18.7 26.7-2.2 2.6-6 3-8.6 0.9-2.7-2.1-3.1-5.9-1-8.6 6.4-8 12.4-16.6 17.8-25.4 1.1-1.8 2.9-2.8 4.7-2.9zm-39.6 49.7c1.7-0.2 3.6 0.4 4.9 1.8 2.4 2.4 2.3 6.3-0.1 8.7-7.7 7.6-16 14.7-24.6 21.3-2.7 2.1-6.6 1.6-8.6-1.1-2.1-2.7-1.6-6.6 1.1-8.6 8.2-6.3 16.1-13.1 23.5-20.4 1.1-1 2.4-1.6 3.8-1.7zm-50.5 38.6c2.2-0.2 4.6 0.9 5.8 3 1.7 2.9 0.7 6.7-2.2 8.4-9.4 5.5-19.2 10.4-29.1 14.7-3.1 1.3-6.7-0.1-8.1-3.2-1.3-3.1 0.2-6.7 3.3-8.1 9.4-4 18.8-8.8 27.7-14 0.8-0.5 1.7-0.7 2.6-0.8zm-58.5 25.1c2.9-0.3 5.6 1.5 6.5 4.4 0.9 3.2-1 6.6-4.2 7.6-10.4 3-21.1 5.4-31.9 7.1-3.3 0.5-6.4-1.8-7-5.1-0.5-3.4 1.8-6.5 5.1-7 10.3-1.7 20.5-3.9 30.4-6.8q0.6-0.2 1.1-0.2zm-94.6 9.1q0.5 0 1 0c8.9 0.8 18 1.1 27.1 1q2-0.1 4-0.2c3.4-0.1 6.3 2.6 6.4 5.9 0.1 3.4-2.5 6.4-5.9 6.4q-2.2 0.1-4.3 0.1c-9.5 0.2-19-0.1-28.3-1-3.4-0.3-5.9-3.2-5.6-6.6 0.3-3 2.7-5.3 5.6-5.6z"/>
					</g>
					<g style="opacity: .3">
						<path class="s3" d="m1101.2 626.4c3.4-0.3 6.3 2.1 6.7 5.5 0.3 3.3-2.1 6.3-5.5 6.7-10.1 1-20.3 2.7-30.2 4.9-3.3 0.7-6.6-1.3-7.3-4.6-0.8-3.3 1.3-6.6 4.6-7.4 10.4-2.3 21-4 31.7-5.1zm31.3-1.3q0.3 0 0.6 0c10.7 0.2 21.5 1 32 2.5 3.4 0.5 5.7 3.6 5.2 6.9-0.4 3.4-3.5 5.7-6.9 5.2-10-1.4-20.3-2.2-30.5-2.4-3.4 0-6.1-2.8-6-6.2 0.1-3.2 2.5-5.7 5.6-6zm-92.4 15.1c2.7-0.2 5.4 1.3 6.3 4 1.2 3.2-0.5 6.7-3.6 7.9-9.6 3.4-19.1 7.5-28.2 12-3 1.6-6.7 0.3-8.2-2.7-1.5-3-0.3-6.7 2.7-8.2 9.5-4.8 19.5-9.1 29.5-12.7q0.8-0.2 1.5-0.3zm154.4-6.4q1-0.1 2.1 0.2c10.3 2.7 20.5 6.2 30.4 10.2 3.2 1.2 4.7 4.8 3.4 7.9-1.2 3.2-4.8 4.7-8 3.4-9.4-3.8-19.1-7-29-9.7-3.2-0.8-5.2-4.2-4.3-7.5 0.7-2.5 2.9-4.3 5.4-4.5zm-210.2 34.5c2.1-0.2 4.3 0.8 5.6 2.7 1.9 2.9 1.1 6.7-1.7 8.5-8.4 5.7-16.6 11.9-24.4 18.5-2.5 2.2-6.4 1.9-8.6-0.6-2.2-2.6-1.9-6.5 0.7-8.7 8.1-6.9 16.7-13.4 25.5-19.4 0.9-0.5 1.9-0.9 2.9-1zm-47.5 40.8c1.6-0.2 3.3 0.3 4.7 1.5 2.5 2.3 2.6 6.2 0.4 8.7-6.9 7.5-13.4 15.5-19.3 23.8-2 2.7-5.8 3.4-8.6 1.4-2.7-2-3.3-5.8-1.4-8.5 6.2-8.7 13-17.1 20.2-25 1.1-1.1 2.5-1.8 4-1.9zm-36.4 50.9c1.2-0.1 2.4 0.1 3.5 0.7 3 1.6 4.1 5.4 2.4 8.3-4.8 9-9.2 18.3-13 27.7-1.2 3.2-4.8 4.7-7.9 3.5-3.1-1.3-4.7-4.8-3.4-8 3.9-9.9 8.5-19.7 13.6-29 1-1.9 2.9-3 4.8-3.2z"/>
						<path class="s3" d="m1252.8 657.4c1.2-0.1 2.4 0.1 3.6 0.7 4.5 2.6 9.1 5.2 13.4 8 2.9 1.8 3.7 5.6 1.9 8.5-1.8 2.8-5.6 3.7-8.4 1.9-4.2-2.7-8.5-5.2-12.9-7.7-3-1.6-4-5.4-2.4-8.3 1-1.9 2.9-3 4.8-3.1z"/>
					</g>
					<g>
						<path class="s3" d="m1254.7 736.7c-0.9-1-2.3-1.3-3.5-0.7l-34.2 16.1c-14.8-9.5-31.3-16.7-48.9-21l-11.9-35.9c-0.4-1.2-1.5-2.1-2.9-2.1l-45.3-0.6c-1.3 0-2.5 0.9-2.9 2.1l-12.8 35.5c-17.7 3.9-34.4 10.7-49.5 19.8l-33.7-17c-1.2-0.6-2.6-0.3-3.6 0.6l-32.4 31.6c-0.9 0.9-1.2 2.3-0.6 3.5l16.1 34.2c-9.5 14.9-16.7 31.3-21.1 49l-35.8 11.8c-1.2 0.4-2.1 1.6-2.1 2.9l-0.6 45.3c0 1.3 0.8 2.5 2.1 3l35.5 12.7c3.9 17.7 10.7 34.4 19.8 49.5l-17 33.7c-0.6 1.2-0.4 2.6 0.5 3.6l31.7 32.4c0.9 1 2.3 1.2 3.5 0.7l34.2-16.1c14.8 9.4 31.3 16.6 48.9 21l11.9 35.8c0.4 1.3 1.5 2.1 2.9 2.1l45.3 0.6c1.3 0 2.5-0.8 2.9-2l12.8-35.5c17.7-4 34.4-10.7 49.5-19.8l33.7 16.9c1.2 0.6 2.6 0.4 3.6-0.5l32.4-31.6c0.9-0.9 1.2-2.4 0.6-3.6l-16.1-34.1c9.5-14.9 16.7-31.4 21.1-49l35.8-11.8c1.2-0.4 2.1-1.6 2.1-2.9l0.6-45.3c0-1.4-0.8-2.5-2.1-3l-35.5-12.7c-3.9-17.8-10.7-34.4-19.8-49.5l17-33.8c0.6-1.1 0.4-2.6-0.5-3.5z"/>
						<g>
							<path class="s1" d="m1124.2 845.5c9.8-0.9 19.6 1.4 28.2 6.7 10.6 6.5 18 16.7 20.8 28.7 6 24.9-9.4 49.9-34.3 55.9-24.9 5.9-49.9-9.5-55.8-34.3-2.9-12.1-0.9-24.5 5.6-35.1 6.4-10.5 16.6-17.9 28.7-20.8q3.4-0.8 6.8-1.1zm6.9 80.1q2.5-0.2 5-0.8c18.3-4.3 29.6-22.8 25.2-41-2.1-8.9-7.5-16.4-15.3-21.2-7.8-4.7-16.9-6.2-25.8-4.1-8.8 2.1-16.3 7.6-21.1 15.3-4.8 7.8-6.2 17-4.1 25.8 4 16.6 19.6 27.5 36.1 26z"/>
						</g>
						<g>
							<path class="s1" d="m1117.3 777.4q5.8-0.5 11.7-0.4c7.8 0.1 15.7 1 23.4 2.7q0.5 0.1 1 0.2c2.6 0.6 4.5 2.9 4.7 5.4q0.1 1-0.1 2c-0.8 3.2-4.1 5.3-7.3 4.6-7.2-1.7-14.5-2.6-21.9-2.6q-0.6 0-1.2 0c-17.4-0.1-34.1 4.2-49 12.2-8.1 4.4-15.6 9.9-22.4 16.4q-0.1 0.1-0.2 0.1-0.2 0.3-0.5 0.5c-19.7 19.3-30.8 45-31.1 72.6q-0.1 5.3 0.4 10.6c2.1 23.6 12.1 45.5 28.8 62.7 19.3 19.8 45.1 30.8 72.6 31.2 27.5 0.3 53.6-10.1 73.3-29.3 19.8-19.3 30.8-45 31.2-72.6q0-5.2-0.4-10.4c-1.4-15.1-6-29.7-13.6-42.7q-0.7-1.3-0.8-2.6c-0.2-2.3 0.9-4.6 3-5.8 3-1.7 6.7-0.7 8.4 2.2 8.5 14.6 13.7 30.9 15.2 47.8q0.5 5.8 0.4 11.7c-0.4 30.8-12.7 59.6-34.8 81.2-22.1 21.5-51.2 33.1-82 32.7-30.9-0.4-59.7-12.7-81.2-34.8-18.8-19.2-30-43.8-32.3-70.2q-0.6-5.9-0.5-11.9c0.8-59.6 46.9-108.3 105.2-113.5z"/>
						</g>
					</g>
				</g>
			</g>
		</g>
	</g>
</svg>